<?xml version="1.0" standalone="no"?><!DOCTYPE svg PUBLIC "-//W3C//DTD SVG 1.1//EN" "http://www.w3.org/Graphics/SVG/1.1/DTD/svg11.dtd"><svg t="1659663425521" class="icon" viewBox="0 0 1024 1024" version="1.1" xmlns="http://www.w3.org/2000/svg" p-id="1403" xmlns:xlink="http://www.w3.org/1999/xlink" width="200" height="200"><defs><style type="text/css">@font-face { font-family: 宋体; src: local("PingFangSC-Regular"); }
@font-face { font-family: 新宋体; src: local("PingFangSC-Regular"); }
@font-face { font-family: 黑体; src: local("PingFangSC-Regular"); }
@font-face { font-family: 仿宋; src: local("PingFangSC-Regular"); }
@font-face { font-family: 微软雅黑; src: local("PingFangSC-Regular"); }
@font-face { font-family: 微軟正黑體; src: local("PingFangSC-Regular"); }
@font-face { font-family: SimSun; src: local("PingFangSC-Regular"); }
@font-face { font-family: NSimSun; src: local("PingFangSC-Regular"); }
@font-face { font-family: SimHei; src: local("PingFangSC-Regular"); }
@font-face { font-family: "Heiti SC"; src: local("PingFangSC-Regular"); }
@font-face { font-family: "HanHei SC"; src: local("PingFangSC-Regular"); }
@font-face { font-family: MingLiU; src: local("PingFangSC-Regular"); }
@font-face { font-family: MingLiU-ExtB; src: local("PingFangSC-Regular"); }
@font-face { font-family: PMingLiU; src: local("PingFangSC-Regular"); }
@font-face { font-family: PMingLiU-ExtB; src: local("PingFangSC-Regular"); }
@font-face { font-family: Roboto; src: local("PingFangSC-Regular"); }
@font-face { font-family: RobotoDraft; src: local("PingFangSC-Regular"); }
@font-face { font-family: "Noto Sans"; src: local("PingFangSC-Regular"); }
@font-face { font-family: Helvetica; src: local("PingFangSC-Regular"); }
@font-face { font-family: "Helvetica Neue"; src: local("PingFangSC-Regular"); }
@font-face { font-family: "Lucida Grande"; src: local("PingFangSC-Regular"); }
@font-face { font-family: Arial; src: local("PingFangSC-Regular"); }
@font-face { font-family: Verdana; src: local("PingFangSC-Regular"); }
@font-face { font-family: Ubuntu; src: local("PingFangSC-Regular"); }
@font-face { font-family: "Segoe UI"; src: local("PingFangSC-Regular"); }
@font-face { font-family: "Open Sans"; src: local("PingFangSC-Regular"); }
:not(i):not([class*="glyph"]):not([class*="icon"]):not([class*="fa-"]):not([class*="vjs-"]) { font-family: "PingFang SC", "Microsoft YaHei", system-ui, -apple-system, BlinkMacSystemFont, sans-serif, iconfont, icomoon, FontAwesome, "Font Awesome 5 Pro", "Font Awesome 6 Pro", IcoFont, fontello, themify, "Material Icons", "Material Icons Extended", bootstrap-icons, "Segoe Fluent Icons", Material-Design-Iconic-Font, office365icons, "Apple Color Emoji", "Segoe UI Emoji", "Segoe UI Symbol", "Noto Color Emoji", "Android Emoji", EmojiSymbols, "emojione mozilla", "twemoji mozilla"; text-shadow: rgba(164, 160, 154, 0.85) 0px 0px 0.77px, rgba(123, 123, 123, 0.8) 0px 0px 0.67px, rgba(48, 47, 45, 0.27) 0px 0px 0.5px; -webkit-text-stroke: 0.05px currentcolor; font-feature-settings: "liga" 0; font-variant: no-common-ligatures proportional-nums; font-optical-sizing: auto; font-kerning: auto; -webkit-font-smoothing: antialiased !important; text-rendering: optimizelegibility !important; }
</style></defs><path d="M888.7 935.4H135.3c-22.1 0-40-17.9-40-40V306.3c0-22.1 17.9-40 40-40h753.4c22.1 0 40 17.9 40 40v589.1c0 22.1-17.9 40-40 40z m-713.4-80h673.4V346.3H175.3v509.1z" p-id="1404" fill="#707070"></path><path d="M512.1 338.4c-10.2 0-20.5-3.9-28.3-11.7-15.6-15.6-15.6-40.9 0-56.6l169.7-169.7c15.6-15.6 40.9-15.6 56.6 0s15.6 40.9 0 56.6L540.4 326.6c-7.8 7.9-18 11.8-28.3 11.8z" p-id="1405" fill="#707070"></path><path d="M511.9 338.4c-10.2 0-20.5-3.9-28.3-11.7L313.9 156.9c-15.6-15.6-15.6-40.9 0-56.6 15.6-15.6 40.9-15.6 56.6 0L540.2 270c15.6 15.6 15.6 40.9 0 56.6-7.9 7.8-18.1 11.8-28.3 11.8zM435.8 772.4c-6.9 0-13.8-1.8-20-5.4-12.4-7.1-20-20.3-20-34.6V468.5c0-14.3 7.6-27.5 20-34.6 12.4-7.1 27.6-7.1 40 0l228.5 131.9c12.4 7.1 20 20.3 20 34.6s-7.6 27.5-20 34.6L455.8 767c-6.1 3.6-13.1 5.4-20 5.4z m40-234.6v125.3l108.5-62.6-108.5-62.7z" p-id="1406" fill="#707070"></path></svg>