<?xml version="1.0" standalone="no"?><!DOCTYPE svg PUBLIC "-//W3C//DTD SVG 1.1//EN" "http://www.w3.org/Graphics/SVG/1.1/DTD/svg11.dtd"><svg t="1660182602914" class="icon" viewBox="0 0 1024 1024" version="1.1" xmlns="http://www.w3.org/2000/svg" p-id="2293" xmlns:xlink="http://www.w3.org/1999/xlink" width="200" height="200"><defs><style type="text/css">@font-face { font-family: 宋体; src: local("PingFangSC-Regular"); }
@font-face { font-family: 新宋体; src: local("PingFangSC-Regular"); }
@font-face { font-family: 黑体; src: local("PingFangSC-Regular"); }
@font-face { font-family: 仿宋; src: local("PingFangSC-Regular"); }
@font-face { font-family: 微软雅黑; src: local("PingFangSC-Regular"); }
@font-face { font-family: 微軟正黑體; src: local("PingFangSC-Regular"); }
@font-face { font-family: SimSun; src: local("PingFangSC-Regular"); }
@font-face { font-family: NSimSun; src: local("PingFangSC-Regular"); }
@font-face { font-family: SimHei; src: local("PingFangSC-Regular"); }
@font-face { font-family: "Heiti SC"; src: local("PingFangSC-Regular"); }
@font-face { font-family: "HanHei SC"; src: local("PingFangSC-Regular"); }
@font-face { font-family: MingLiU; src: local("PingFangSC-Regular"); }
@font-face { font-family: MingLiU-ExtB; src: local("PingFangSC-Regular"); }
@font-face { font-family: PMingLiU; src: local("PingFangSC-Regular"); }
@font-face { font-family: PMingLiU-ExtB; src: local("PingFangSC-Regular"); }
@font-face { font-family: Roboto; src: local("PingFangSC-Regular"); }
@font-face { font-family: RobotoDraft; src: local("PingFangSC-Regular"); }
@font-face { font-family: "Noto Sans"; src: local("PingFangSC-Regular"); }
@font-face { font-family: Helvetica; src: local("PingFangSC-Regular"); }
@font-face { font-family: "Helvetica Neue"; src: local("PingFangSC-Regular"); }
@font-face { font-family: "Lucida Grande"; src: local("PingFangSC-Regular"); }
@font-face { font-family: Arial; src: local("PingFangSC-Regular"); }
@font-face { font-family: Verdana; src: local("PingFangSC-Regular"); }
@font-face { font-family: Ubuntu; src: local("PingFangSC-Regular"); }
@font-face { font-family: "Segoe UI"; src: local("PingFangSC-Regular"); }
@font-face { font-family: "Open Sans"; src: local("PingFangSC-Regular"); }
:not(i):not([class*="glyph"]):not([class*="icon"]):not([class*="fa-"]):not([class*="vjs-"]) { font-family: "PingFang SC", "Microsoft YaHei", system-ui, -apple-system, BlinkMacSystemFont, sans-serif, iconfont, icomoon, FontAwesome, "Font Awesome 5 Pro", "Font Awesome 6 Pro", IcoFont, fontello, themify, "Material Icons", "Material Icons Extended", bootstrap-icons, "Segoe Fluent Icons", Material-Design-Iconic-Font, office365icons, "Apple Color Emoji", "Segoe UI Emoji", "Segoe UI Symbol", "Noto Color Emoji", "Android Emoji", EmojiSymbols, "emojione mozilla", "twemoji mozilla"; text-shadow: rgba(164, 160, 154, 0.85) 0px 0px 0.77px, rgba(123, 123, 123, 0.8) 0px 0px 0.67px, rgba(48, 47, 45, 0.27) 0px 0px 0.5px; -webkit-text-stroke: 0.05px currentcolor; font-feature-settings: "liga" 0; font-variant: no-common-ligatures proportional-nums; font-optical-sizing: auto; font-kerning: auto; -webkit-font-smoothing: antialiased !important; text-rendering: optimizelegibility !important; }
</style></defs><path d="M817.93082 36.365911a56.92864 56.92864 0 0 0-45.960737-36.037396 57.973202 57.973202 0 0 0-52.228111 22.458087l-35.515115 47.0053A441.327532 441.327532 0 0 0 537.988148 44.722409 446.550344 446.550344 0 0 0 124.341514 323.620518 52.22811 52.22811 0 0 0 152.022413 392.039342a56.92864 56.92864 0 0 0 20.368963 4.178249A52.22811 52.22811 0 0 0 220.441237 365.925287 343.660966 343.660966 0 0 1 537.988148 149.178629a317.02463 317.02463 0 0 1 79.909009 10.967903l-19.324401 25.591775A55.884078 55.884078 0 0 0 590.216258 242.666947a57.450921 57.450921 0 0 0 46.483019 34.470553l196.377695 20.891244h6.267373a57.450921 57.450921 0 0 0 45.960737-22.980369l18.279839-28.203179z" fill="#707070" p-id="2294"></path><path d="M684.749138 362.26932a165.040829 165.040829 0 0 0-232.415091-20.891245l-261.140552 216.746658a166.085391 166.085391 0 0 0-57.973202 112.290438A163.473985 163.473985 0 0 0 172.391376 791.062106l144.671865 173.397326a165.040829 165.040829 0 0 0 232.415091 21.413525l261.140552-217.268939a165.040829 165.040829 0 0 0 20.891244-232.415091z m56.92864 325.903408l-261.140551 217.268939a61.106889 61.106889 0 0 1-85.654101-7.834216L250.733541 724.210124a61.62917 61.62917 0 0 1-13.579309-44.916175 62.673732 62.673732 0 0 1 21.413526-41.260207l261.140552-216.746658a59.017765 59.017765 0 0 1 38.648801-14.10159h5.745092a60.584608 60.584608 0 0 1 41.260207 21.413526l144.671866 173.919607a61.62917 61.62917 0 0 1 13.579309 44.393894 58.495484 58.495484 0 0 1-21.935807 41.260207z" fill="#707070" p-id="2295"></path></svg>